<svg width="138" height="138" viewBox="0 0 138 138" fill="none" xmlns="http://www.w3.org/2000/svg">
    <rect width="138" height="138" rx="27" fill="#060E19" />
    <path
        d="M27.4256 94.6884C25.1819 94.6884 23.4481 94.0765 22.2242 92.8526C21.0004 91.5778 20.3885 89.8185 20.3885 87.5747V47.1874C20.3885 44.8926 21.0004 43.1333 22.2242 41.9095C23.4991 40.6856 25.2584 40.0737 27.5021 40.0737H46.319C52.4383 40.0737 57.1552 41.578 60.4699 44.5867C63.8355 47.5443 65.5183 51.6749 65.5183 56.9782C65.5183 60.3949 64.7534 63.378 63.2235 65.9277C61.7447 68.4264 59.5775 70.3642 56.7218 71.7411C53.9171 73.0669 50.4495 73.7298 46.319 73.7298L46.9309 72.353H50.6025C52.7952 72.353 54.733 72.8884 56.4158 73.9593C58.0986 74.9792 59.501 76.56 60.6228 78.7018L64.4474 85.586C65.2633 87.0648 65.6458 88.5181 65.5948 89.946C65.5438 91.3228 64.9828 92.4702 63.912 93.3881C62.8921 94.255 61.3877 94.6884 59.399 94.6884C57.4102 94.6884 55.7784 94.2805 54.5035 93.4646C53.2797 92.6487 52.1833 91.3738 51.2144 89.64L44.2537 76.866C43.6418 75.7441 42.8514 74.9792 41.8825 74.5712C40.9646 74.1123 39.8937 73.8828 38.6699 73.8828H34.4628V87.5747C34.4628 89.8185 33.8764 91.5778 32.7035 92.8526C31.5307 94.0765 29.7714 94.6884 27.4256 94.6884ZM34.4628 63.9389H43.7948C46.4975 63.9389 48.5627 63.4035 49.9906 62.3326C51.4184 61.2618 52.1323 59.6044 52.1323 57.3607C52.1323 55.2189 51.4184 53.6126 49.9906 52.5418C48.5627 51.4199 46.4975 50.8589 43.7948 50.8589H34.4628V63.9389ZM81.4326 94.6884C79.1889 94.6884 77.4551 94.0765 76.2312 92.8526C75.0074 91.5778 74.3954 89.8185 74.3954 87.5747V47.1874C74.3954 44.8926 75.0074 43.1333 76.2312 41.9095C77.5061 40.6856 79.2654 40.0737 81.5091 40.0737H100.326C106.445 40.0737 111.162 41.578 114.477 44.5867C117.842 47.5443 119.525 51.6749 119.525 56.9782C119.525 60.3949 118.76 63.378 117.231 65.9277C115.752 68.4264 113.584 70.3642 110.729 71.7411C107.924 73.0669 104.456 73.7298 100.326 73.7298L100.938 72.353H104.609C106.802 72.353 108.74 72.8884 110.423 73.9593C112.106 74.9792 113.508 76.56 114.63 78.7018L118.454 85.586C119.27 87.0648 119.653 88.5181 119.602 89.946C119.551 91.3228 118.99 92.4702 117.919 93.3881C116.899 94.255 115.395 94.6884 113.406 94.6884C111.417 94.6884 109.785 94.2805 108.511 93.4646C107.287 92.6487 106.19 91.3738 105.221 89.64L98.2607 76.866C97.6488 75.7441 96.8584 74.9792 95.8895 74.5712C94.9716 74.1123 93.9007 73.8828 92.6768 73.8828H88.4698V87.5747C88.4698 89.8185 87.8834 91.5778 86.7105 92.8526C85.5377 94.0765 83.7784 94.6884 81.4326 94.6884ZM88.4698 63.9389H97.8018C100.504 63.9389 102.57 63.4035 103.998 62.3326C105.425 61.2618 106.139 59.6044 106.139 57.3607C106.139 55.2189 105.425 53.6126 103.998 52.5418C102.57 51.4199 100.504 50.8589 97.8018 50.8589H88.4698V63.9389Z"
        fill="#DFECFF" />
</svg>